<svg xmlns="http://www.w3.org/2000/svg" xmlns:xlink="http://www.w3.org/1999/xlink" width="1920" zoomAndPan="magnify" viewBox="0 0 1440 299.999988" height="400" preserveAspectRatio="xMidYMid meet" version="1.0"><defs><g/><clipPath id="52adf89940"><path d="M 0 17.5 L 396.75 17.5 L 396.75 289 L 0 289 Z M 0 17.5 " clip-rule="nonzero"/></clipPath><clipPath id="90b348c6f3"><path d="M 73 41 L 396.75 41 L 396.75 289 L 73 289 Z M 73 41 " clip-rule="nonzero"/></clipPath><clipPath id="050ce3badc"><path d="M 39 17.5 L 377 17.5 L 377 270 L 39 270 Z M 39 17.5 " clip-rule="nonzero"/></clipPath></defs><g clip-path="url(#52adf89940)"><path fill="#f9c630" d="M 396.671875 100.984375 L 376.515625 100.984375 L 376.515625 17.585938 L 39.59375 17.585938 L 39.59375 149.914062 L 33.722656 144.035156 L 27.929688 138.15625 L 0 166.117188 L 9.441406 175.566406 L 27.851562 157.140625 L 39.515625 168.816406 L 39.515625 269.132812 L 73.003906 269.132812 L 73.003906 288.992188 L 396.75 288.992188 Z M 52.925781 30.929688 L 165.367188 30.929688 C 167.191406 30.929688 169.015625 31.089844 170.839844 31.40625 C 171.078125 31.40625 171.238281 31.484375 171.476562 31.484375 C 171.632812 31.484375 171.792969 31.566406 171.953125 31.566406 C 180.285156 33.234375 187.582031 38.15625 192.34375 45.386719 L 202.261719 60.558594 C 202.738281 61.273438 203.214844 61.988281 203.769531 62.703125 C 204.007812 62.859375 204.167969 63.179688 204.328125 63.335938 C 204.484375 63.496094 204.644531 63.734375 204.800781 63.894531 C 204.882812 63.972656 204.960938 64.050781 205.039062 64.132812 C 205.199219 64.371094 205.359375 64.527344 205.515625 64.765625 C 205.597656 64.847656 205.675781 64.847656 205.675781 64.925781 C 205.753906 65.085938 205.832031 65.164062 205.992188 65.324219 C 205.992188 65.402344 206.070312 65.402344 206.070312 65.480469 C 206.546875 65.957031 206.867188 66.355469 207.339844 66.832031 C 207.5 66.992188 207.578125 67.148438 207.816406 67.308594 C 207.816406 67.386719 207.898438 67.386719 207.898438 67.46875 C 207.976562 67.546875 208.054688 67.625 208.136719 67.707031 L 52.925781 67.707031 Z M 73.082031 255.632812 L 73.082031 255.710938 L 52.925781 255.710938 L 52.925781 176.363281 L 71.890625 157.378906 L 73.082031 158.570312 Z M 160.921875 253.007812 L 158.304688 255.632812 L 147.511719 266.433594 L 147.433594 266.511719 L 144.894531 269.054688 L 144.8125 269.132812 L 134.972656 278.984375 L 125.53125 269.609375 L 125.929688 269.214844 L 125.847656 269.214844 L 125.929688 269.132812 L 128.546875 266.511719 L 139.339844 255.710938 L 141.957031 253.089844 L 154.335938 240.777344 L 163.699219 250.230469 Z M 130.453125 227.910156 L 159.335938 199 L 168.777344 208.449219 L 139.894531 237.363281 Z M 176.554688 237.363281 L 167.109375 227.910156 L 195.996094 199 L 205.4375 208.449219 Z M 310.101562 228.464844 L 283.199219 194.234375 L 278.675781 201.859375 L 266.617188 221.792969 L 255.507812 180.332031 L 244.398438 138.714844 L 285.738281 149.753906 L 285.820312 149.753906 L 327.398438 160.875 L 316.367188 167.464844 L 299.785156 177.472656 L 333.90625 204.480469 Z M 363.105469 100.984375 L 73.082031 100.984375 L 73.082031 139.507812 L 71.890625 138.316406 L 71.890625 138.394531 L 71.8125 138.316406 L 52.925781 157.378906 L 52.925781 81.128906 L 363.105469 81.128906 Z M 363.183594 67.707031 L 240.589844 67.707031 C 229.71875 67.707031 219.640625 62.382812 213.691406 53.25 L 203.613281 38.078125 C 203.136719 37.363281 202.660156 36.648438 202.105469 35.933594 C 201.945312 35.773438 201.785156 35.457031 201.628906 35.296875 C 201.46875 35.140625 201.3125 34.902344 201.152344 34.742188 C 201.074219 34.664062 200.992188 34.582031 200.914062 34.503906 C 200.753906 34.265625 200.597656 34.105469 200.4375 33.867188 C 200.359375 33.789062 200.199219 33.710938 200.121094 33.628906 C 200.042969 33.550781 199.960938 33.472656 199.882812 33.390625 C 199.804688 33.3125 199.804688 33.234375 199.722656 33.234375 C 199.246094 32.757812 198.929688 32.359375 198.453125 31.882812 C 198.214844 31.566406 198.058594 31.40625 197.898438 31.246094 C 197.820312 31.167969 197.738281 31.089844 197.660156 31.007812 L 363.105469 31.007812 L 363.105469 67.707031 Z M 363.183594 67.707031 " fill-opacity="1" fill-rule="nonzero"/><path fill="#f9c630" d="M 75.542969 41.652344 C 71.335938 41.652344 68.082031 45.066406 68.082031 49.121094 C 68.082031 53.328125 71.496094 56.585938 75.542969 56.585938 C 79.746094 56.585938 83 53.171875 83 49.121094 C 83.078125 45.066406 79.667969 41.652344 75.542969 41.652344 Z M 102.28125 41.652344 C 98.078125 41.652344 94.824219 45.066406 94.824219 49.121094 C 94.824219 53.328125 98.234375 56.585938 102.28125 56.585938 C 106.488281 56.585938 109.742188 53.171875 109.742188 49.121094 C 109.742188 45.066406 106.410156 41.652344 102.28125 41.652344 Z M 129.023438 41.652344 C 124.816406 41.652344 121.5625 45.066406 121.5625 49.121094 C 121.5625 53.328125 124.976562 56.585938 129.023438 56.585938 C 133.230469 56.585938 136.480469 53.171875 136.480469 49.121094 C 136.480469 45.066406 133.148438 41.652344 129.023438 41.652344 Z M 117.835938 137.679688 L 94.425781 160.953125 L 73.003906 139.429688 L 71.8125 138.238281 L 52.925781 157.300781 L 52.925781 176.28125 L 71.890625 157.300781 L 73.082031 158.492188 L 94.585938 180.015625 L 117.914062 156.742188 L 136.71875 175.566406 L 146.164062 166.117188 Z M 129.023438 41.652344 C 124.816406 41.652344 121.5625 45.066406 121.5625 49.121094 C 121.5625 53.328125 124.976562 56.585938 129.023438 56.585938 C 133.230469 56.585938 136.480469 53.171875 136.480469 49.121094 C 136.480469 45.066406 133.148438 41.652344 129.023438 41.652344 Z M 102.28125 41.652344 C 98.078125 41.652344 94.824219 45.066406 94.824219 49.121094 C 94.824219 53.328125 98.234375 56.585938 102.28125 56.585938 C 106.488281 56.585938 109.742188 53.171875 109.742188 49.121094 C 109.742188 45.066406 106.410156 41.652344 102.28125 41.652344 Z M 75.542969 41.652344 C 71.335938 41.652344 68.082031 45.066406 68.082031 49.121094 C 68.082031 53.328125 71.496094 56.585938 75.542969 56.585938 C 79.746094 56.585938 83 53.171875 83 49.121094 C 83.078125 45.066406 79.667969 41.652344 75.542969 41.652344 Z M 376.515625 100.90625 L 376.515625 17.507812 L 39.59375 17.507812 L 39.59375 149.832031 L 27.929688 138.15625 L 0 166.035156 L 9.441406 175.488281 L 27.851562 157.0625 L 39.515625 168.738281 L 39.515625 269.054688 L 73.003906 269.054688 L 73.003906 288.910156 L 396.75 288.910156 L 396.75 100.90625 Z M 363.183594 30.851562 L 363.183594 67.625 L 240.429688 67.625 C 229.558594 67.625 219.5625 62.144531 213.53125 53.171875 L 203.53125 38 C 203.058594 37.285156 202.582031 36.570312 202.023438 35.855469 C 201.867188 35.695312 201.707031 35.378906 201.550781 35.21875 C 201.230469 34.664062 200.753906 34.265625 200.359375 33.789062 C 200.199219 33.628906 200.042969 33.3125 199.722656 33.074219 C 199.246094 32.597656 198.929688 32.199219 198.453125 31.722656 C 198.296875 31.566406 198.136719 31.246094 197.898438 31.089844 C 197.820312 31.007812 197.738281 30.929688 197.660156 30.851562 Z M 52.925781 30.851562 L 165.445312 30.851562 C 176.316406 30.851562 186.3125 36.332031 192.265625 45.304688 L 202.34375 60.476562 C 202.820312 61.191406 203.292969 61.90625 203.851562 62.621094 C 204.007812 62.78125 204.167969 63.097656 204.328125 63.257812 C 204.644531 63.8125 205.121094 64.210938 205.515625 64.6875 C 205.675781 64.925781 205.832031 65.164062 206.152344 65.402344 C 206.46875 65.878906 206.945312 66.277344 207.339844 66.753906 C 207.5 66.910156 207.660156 67.230469 207.976562 67.386719 C 208.054688 67.46875 208.136719 67.546875 208.214844 67.625 L 52.925781 67.625 Z M 52.925781 81.050781 L 363.105469 81.050781 L 363.105469 100.90625 L 73.082031 100.90625 L 73.082031 139.429688 L 71.890625 138.238281 L 52.925781 157.300781 Z M 159.335938 198.917969 L 168.777344 208.371094 L 139.894531 237.28125 L 130.453125 227.832031 Z M 195.996094 198.917969 L 205.4375 208.371094 L 176.554688 237.28125 L 167.109375 227.832031 Z M 334.0625 204.480469 L 310.101562 228.464844 L 283.199219 194.234375 L 266.535156 221.792969 L 244.238281 138.554688 L 285.820312 149.675781 L 327.398438 160.792969 L 299.785156 177.394531 Z M 52.925781 255.710938 L 52.925781 176.28125 L 71.890625 157.300781 L 73.082031 158.492188 L 73.082031 255.710938 Z M 134.972656 278.902344 L 125.53125 269.453125 L 126.007812 268.976562 L 128.625 266.355469 L 139.417969 255.550781 L 142.035156 252.929688 L 154.496094 240.460938 L 163.9375 249.910156 L 160.921875 252.929688 L 158.304688 255.550781 L 147.511719 266.355469 L 144.894531 268.976562 Z M 129.023438 41.652344 C 124.816406 41.652344 121.5625 45.066406 121.5625 49.121094 C 121.5625 53.328125 124.976562 56.585938 129.023438 56.585938 C 133.230469 56.585938 136.480469 53.171875 136.480469 49.121094 C 136.480469 45.066406 133.148438 41.652344 129.023438 41.652344 Z M 102.28125 41.652344 C 98.078125 41.652344 94.824219 45.066406 94.824219 49.121094 C 94.824219 53.328125 98.234375 56.585938 102.28125 56.585938 C 106.488281 56.585938 109.742188 53.171875 109.742188 49.121094 C 109.742188 45.066406 106.410156 41.652344 102.28125 41.652344 Z M 75.542969 41.652344 C 71.335938 41.652344 68.082031 45.066406 68.082031 49.121094 C 68.082031 53.328125 71.496094 56.585938 75.542969 56.585938 C 79.746094 56.585938 83 53.171875 83 49.121094 C 83.078125 45.066406 79.667969 41.652344 75.542969 41.652344 Z M 75.542969 41.652344 C 71.335938 41.652344 68.082031 45.066406 68.082031 49.121094 C 68.082031 53.328125 71.496094 56.585938 75.542969 56.585938 C 79.746094 56.585938 83 53.171875 83 49.121094 C 83.078125 45.066406 79.667969 41.652344 75.542969 41.652344 Z M 102.28125 41.652344 C 98.078125 41.652344 94.824219 45.066406 94.824219 49.121094 C 94.824219 53.328125 98.234375 56.585938 102.28125 56.585938 C 106.488281 56.585938 109.742188 53.171875 109.742188 49.121094 C 109.742188 45.066406 106.410156 41.652344 102.28125 41.652344 Z M 129.023438 41.652344 C 124.816406 41.652344 121.5625 45.066406 121.5625 49.121094 C 121.5625 53.328125 124.976562 56.585938 129.023438 56.585938 C 133.230469 56.585938 136.480469 53.171875 136.480469 49.121094 C 136.480469 45.066406 133.148438 41.652344 129.023438 41.652344 Z M 129.023438 41.652344 C 124.816406 41.652344 121.5625 45.066406 121.5625 49.121094 C 121.5625 53.328125 124.976562 56.585938 129.023438 56.585938 C 133.230469 56.585938 136.480469 53.171875 136.480469 49.121094 C 136.480469 45.066406 133.148438 41.652344 129.023438 41.652344 Z M 102.28125 41.652344 C 98.078125 41.652344 94.824219 45.066406 94.824219 49.121094 C 94.824219 53.328125 98.234375 56.585938 102.28125 56.585938 C 106.488281 56.585938 109.742188 53.171875 109.742188 49.121094 C 109.742188 45.066406 106.410156 41.652344 102.28125 41.652344 Z M 75.542969 41.652344 C 71.335938 41.652344 68.082031 45.066406 68.082031 49.121094 C 68.082031 53.328125 71.496094 56.585938 75.542969 56.585938 C 79.746094 56.585938 83 53.171875 83 49.121094 C 83.078125 45.066406 79.667969 41.652344 75.542969 41.652344 Z M 75.542969 41.652344 " fill-opacity="1" fill-rule="nonzero"/></g><g clip-path="url(#90b348c6f3)"><path fill="#f9c630" d="M 154.414062 240.617188 L 163.859375 250.070312 L 160.84375 253.089844 L 158.222656 255.710938 L 363.183594 255.710938 L 363.183594 100.90625 L 73.082031 100.90625 L 73.082031 139.429688 L 94.585938 160.953125 L 117.914062 137.601562 L 146.164062 165.878906 L 136.640625 175.410156 L 117.835938 156.585938 L 94.585938 179.855469 L 73.082031 158.332031 L 73.082031 255.550781 L 139.417969 255.550781 L 142.035156 252.929688 Z M 285.820312 149.675781 L 327.398438 160.792969 L 299.785156 177.394531 L 333.984375 204.320312 L 310.101562 228.386719 L 283.199219 194.152344 L 266.617188 221.875 L 244.398438 138.632812 Z M 205.4375 208.371094 L 176.554688 237.28125 L 167.109375 227.832031 L 195.996094 198.917969 Z M 130.453125 227.832031 L 159.335938 198.917969 L 168.777344 208.371094 L 139.894531 237.28125 Z M 396.671875 100.90625 L 396.671875 288.832031 L 73.082031 288.832031 L 73.082031 269.054688 L 126.007812 269.054688 L 125.53125 269.53125 L 134.972656 278.984375 L 144.894531 269.054688 L 376.59375 269.054688 L 376.59375 100.90625 Z M 109.820312 49.277344 C 109.820312 53.488281 106.410156 56.746094 102.363281 56.746094 C 98.234375 56.746094 94.902344 53.328125 94.902344 49.277344 C 94.902344 45.226562 98.316406 41.8125 102.363281 41.8125 C 106.410156 41.730469 109.820312 45.066406 109.820312 49.277344 Z M 109.820312 49.277344 " fill-opacity="1" fill-rule="nonzero"/></g><g clip-path="url(#050ce3badc)"><path fill="#56b9ac" d="M 73.082031 255.710938 L 73.082031 269.054688 L 39.59375 269.054688 L 39.59375 168.738281 L 49.992188 179.140625 L 52.925781 176.203125 L 52.925781 255.632812 L 73.082031 255.632812 Z M 49.992188 160.316406 L 39.59375 149.914062 L 39.59375 17.507812 L 376.515625 17.507812 L 376.515625 100.90625 L 363.183594 100.90625 L 363.183594 81.050781 L 52.925781 81.050781 L 52.925781 157.378906 Z M 197.738281 30.851562 C 197.820312 30.929688 197.898438 31.007812 197.976562 31.089844 C 198.136719 31.246094 198.296875 31.40625 198.535156 31.722656 C 199.011719 32.199219 199.328125 32.597656 199.804688 33.074219 C 199.960938 33.3125 200.121094 33.550781 200.4375 33.789062 C 200.753906 34.265625 201.230469 34.742188 201.628906 35.21875 C 201.785156 35.378906 201.945312 35.695312 202.105469 35.855469 C 202.660156 36.570312 203.136719 37.285156 203.613281 38 L 213.691406 53.171875 C 219.640625 62.304688 229.71875 67.625 240.589844 67.625 L 363.421875 67.625 L 363.421875 30.851562 Z M 52.925781 67.625 L 208.136719 67.625 C 208.054688 67.546875 207.976562 67.46875 207.898438 67.386719 C 207.738281 67.230469 207.578125 66.910156 207.339844 66.753906 C 206.867188 66.277344 206.546875 65.878906 206.070312 65.402344 C 205.914062 65.164062 205.753906 64.925781 205.4375 64.6875 C 205.121094 64.210938 204.644531 63.734375 204.246094 63.257812 C 204.089844 63.097656 203.929688 62.78125 203.691406 62.621094 C 203.136719 61.90625 202.660156 61.191406 202.183594 60.476562 L 192.265625 45.304688 C 186.3125 36.171875 176.238281 30.851562 165.367188 30.851562 L 52.925781 30.851562 Z M 129.023438 41.652344 C 124.816406 41.652344 121.5625 45.066406 121.5625 49.121094 C 121.5625 53.171875 124.976562 56.585938 129.023438 56.585938 C 133.148438 56.585938 136.480469 53.171875 136.480469 49.121094 C 136.480469 45.066406 133.148438 41.652344 129.023438 41.652344 Z M 129.023438 41.652344 " fill-opacity="1" fill-rule="nonzero"/></g><path fill="#f98a8a" d="M 83.078125 49.277344 C 83.078125 53.488281 79.667969 56.746094 75.621094 56.746094 C 71.496094 56.746094 68.160156 53.328125 68.160156 49.277344 C 68.160156 45.226562 71.574219 41.8125 75.621094 41.8125 C 79.667969 41.730469 83.078125 45.066406 83.078125 49.277344 Z M 27.929688 138.078125 L 0 166.035156 L 9.441406 175.488281 L 27.851562 157.0625 L 39.515625 168.738281 L 39.515625 149.832031 Z M 73.082031 158.332031 L 94.585938 179.855469 L 117.914062 156.503906 L 136.71875 175.328125 L 146.164062 165.878906 L 117.914062 137.601562 L 94.585938 160.953125 L 73.082031 139.429688 L 71.890625 138.238281 L 52.925781 157.300781 L 52.925781 176.28125 L 71.890625 157.300781 Z M 73.082031 158.332031 " fill-opacity="1" fill-rule="nonzero"/><path fill="#4e2ec8" d="M 363.183594 100.90625 L 376.515625 100.90625 L 376.515625 269.054688 L 144.8125 269.054688 L 147.433594 266.433594 L 158.222656 255.632812 L 363.183594 255.632812 Z M 128.625 266.355469 L 139.417969 255.550781 L 73.082031 255.550781 L 73.082031 268.894531 L 126.007812 268.894531 Z M 52.925781 176.28125 L 52.925781 157.378906 L 49.992188 160.316406 L 39.59375 149.914062 L 39.59375 168.816406 L 49.992188 179.222656 Z M 52.925781 176.28125 " fill-opacity="1" fill-rule="nonzero"/><g fill="#ffffff" fill-opacity="1"><g transform="translate(454.80316, 207.667483)"><g><path d="M 131.890625 -61.4375 L 53.484375 -61.4375 L 53.484375 -78.890625 L 79.109375 -78.890625 L 79.109375 -86.015625 L 56.96875 -86.015625 L 56.96875 -103.609375 L 79.109375 -103.609375 L 79.109375 -110.515625 L 98.4375 -110.515625 L 98.4375 -103.609375 L 120.859375 -103.609375 L 120.859375 -86.015625 L 98.4375 -86.015625 L 98.4375 -78.890625 L 131.890625 -78.890625 Z M 48.453125 -94.8125 L 48.453125 -6.625 L 5.859375 -6.625 L 5.859375 -94.8125 Z M 23.453125 -57.453125 L 31.203125 -57.453125 L 31.203125 -79.171875 L 23.453125 -79.171875 Z M 52.21875 -53.765625 L 96 -53.765625 L 96 -58.359375 L 116.875 -58.359375 L 116.875 -53.765625 L 133.765625 -53.765625 L 133.765625 -35.8125 L 116.875 -35.8125 L 116.875 -9.5625 C 116.875 -4.300781 115.1875 -0.414062 111.8125 2.09375 C 108.4375 4.601562 104.609375 5.859375 100.328125 5.859375 C 95.898438 5.859375 90.40625 4.976562 83.84375 3.21875 L 80.421875 -10.6875 L 96 -11.234375 L 96 -35.8125 L 52.21875 -35.8125 Z M 23.453125 -22 L 31.203125 -22 L 31.203125 -42.515625 L 23.453125 -42.515625 Z M 64.4375 -34.140625 C 74.769531 -31.441406 83.054688 -26.738281 89.296875 -20.03125 L 75.890625 -6.90625 L 52.921875 -25.140625 Z M 64.4375 -34.140625 "/></g></g></g><g fill="#ffffff" fill-opacity="1"><g transform="translate(594.421071, 207.667483)"><g><path d="M 78.46875 0.484375 L 58.4375 0.484375 L 58.4375 -62.28125 L 32.890625 -62.140625 L 32.890625 0.625 L 11.234375 0.625 L 11.234375 -78.609375 L 58.4375 -78.609375 L 58.4375 -87.0625 L 7.546875 -87.0625 L 7.546875 -107.65625 L 131.953125 -107.65625 L 131.953125 -87.0625 L 78.46875 -87.0625 L 78.46875 -78.609375 L 127.765625 -78.609375 C 127.109375 -33.367188 126.554688 -9.035156 126.109375 -5.609375 C 125.671875 -2.191406 123.953125 0.0820312 120.953125 1.21875 C 117.953125 2.363281 115.265625 2.9375 112.890625 2.9375 C 108.984375 2.9375 104.144531 2.117188 98.375 0.484375 L 96.703125 -11.453125 L 105.078125 -12.28125 L 105.078125 -62.5625 L 78.46875 -62.421875 Z M 39.3125 -57.953125 C 42.613281 -57.578125 45.753906 -56.863281 48.734375 -55.8125 C 51.710938 -54.769531 54.757812 -53.570312 57.875 -52.21875 L 49.5625 -40.140625 C 47.050781 -41.910156 44.410156 -43.398438 41.640625 -44.609375 C 38.867188 -45.816406 36.019531 -46.769531 33.09375 -47.46875 Z M 86.078125 -56.90625 C 89.390625 -56.53125 92.535156 -55.816406 95.515625 -54.765625 C 98.492188 -53.722656 101.539062 -52.523438 104.65625 -51.171875 L 96.34375 -39.09375 C 93.832031 -40.863281 91.191406 -42.351562 88.421875 -43.5625 C 85.648438 -44.769531 82.800781 -45.722656 79.875 -46.421875 Z M 86.015625 -37.484375 C 89.316406 -37.066406 92.457031 -36.285156 95.4375 -35.140625 C 98.414062 -34.003906 101.460938 -32.691406 104.578125 -31.203125 L 96.28125 -18.078125 C 93.757812 -19.984375 91.113281 -21.597656 88.34375 -22.921875 C 85.582031 -24.253906 82.734375 -25.296875 79.796875 -26.046875 Z M 39.515625 -36.9375 C 42.816406 -36.5625 45.957031 -35.800781 48.9375 -34.65625 C 51.914062 -33.519531 54.96875 -32.207031 58.09375 -30.71875 L 49.78125 -17.53125 C 47.269531 -19.476562 44.628906 -21.113281 41.859375 -22.4375 C 39.085938 -23.769531 36.234375 -24.804688 33.296875 -25.546875 Z M 39.515625 -36.9375 "/></g></g></g><g fill="#ffffff" fill-opacity="1"><g transform="translate(733.969172, 207.667483)"><g><path d="M 62.421875 -87.484375 L 62.421875 -1.671875 L 9.140625 -1.671875 L 9.140625 -87.625 L 16.203125 -87.625 L 28.828125 -110.03125 L 48.3125 -105.625 C 46.3125 -98.1875 43.660156 -92.140625 40.359375 -87.484375 Z M 76.734375 -109.75 L 96.484375 -105.5 C 96.109375 -101.207031 95.457031 -97.222656 94.53125 -93.546875 L 130.34375 -93.625 C 130.394531 -91.019531 130.421875 -88.085938 130.421875 -84.828125 C 130.421875 -74.492188 130.035156 -59.398438 129.265625 -39.546875 C 128.492188 -19.703125 126.210938 -7.265625 122.421875 -2.234375 C 118.628906 2.796875 113.078125 5.3125 105.765625 5.3125 C 104.890625 5.3125 102.050781 5.132812 97.25 4.78125 C 92.457031 4.4375 87.851562 1.957031 83.4375 -2.65625 L 86.984375 -18.703125 L 106.890625 -16.96875 L 111.28125 -76.59375 L 86.71875 -76.59375 C 83.59375 -72.445312 79.726562 -69.046875 75.125 -66.390625 L 63.109375 -74.28125 C 68.878906 -83.914062 73.421875 -95.738281 76.734375 -109.75 Z M 28.421875 -53.0625 L 44.1875 -53.0625 L 44.1875 -69.890625 L 28.421875 -69.890625 Z M 83.078125 -63.109375 C 91.503906 -57.109375 97.695312 -49.429688 101.65625 -40.078125 L 88.3125 -27.859375 L 67.578125 -51.25 Z M 28.421875 -18.703125 L 44.1875 -18.703125 L 44.1875 -35.328125 L 28.421875 -35.328125 Z M 28.421875 -18.703125 "/></g></g></g><g fill="#ffffff" fill-opacity="1"><g transform="translate(873.517273, 207.667483)"><g><path d="M 105 -112.609375 L 114.78125 -100.53125 C 107.894531 -96.945312 100.144531 -95.15625 91.53125 -95.15625 C 87.894531 -95.15625 84.125 -95.484375 80.21875 -96.140625 L 73.234375 -103.890625 Z M 32.46875 -109.1875 C 35.8125 -109.519531 39.019531 -109.6875 42.09375 -109.6875 C 51.726562 -109.6875 59.78125 -107.960938 66.25 -104.515625 L 57.109375 -95.859375 L 23.953125 -100.890625 Z M 132.859375 -78.890625 L 6.703125 -78.890625 L 6.703125 -93.765625 L 132.859375 -93.765625 Z M 22.0625 -73.796875 L 72.46875 -73.796875 C 72.519531 -71.140625 72.546875 -67.832031 72.546875 -63.875 L 72.546875 -37.359375 C 72.546875 -32.648438 72.53125 -28.210938 72.5 -24.046875 C 72.476562 -19.878906 72.457031 -16.175781 72.4375 -12.9375 C 72.414062 -9.707031 72.378906 -7.300781 72.328125 -5.71875 C 72.285156 -3.8125 71.945312 -2.113281 71.3125 -0.625 C 70.6875 0.863281 69.789062 2.46875 68.625 4.1875 C 67.46875 5.90625 65.429688 6.953125 62.515625 7.328125 C 59.609375 7.703125 57.644531 7.890625 56.625 7.890625 C 52.382812 7.890625 47.445312 6.863281 41.8125 4.8125 L 41.609375 -8.171875 L 52.78125 -8.3125 L 52.921875 -18.15625 L 32.8125 -18.15625 L 32.8125 5.859375 L 12.921875 5.859375 L 12.921875 -73.71875 L 22.0625 -73.71875 Z M 104.375 -72.890625 L 126.015625 -73.3125 L 126.015625 -11.796875 C 125.828125 -8.492188 125.46875 -5.722656 124.9375 -3.484375 C 124.40625 -1.253906 123.625 0.601562 122.59375 2.09375 C 121.570312 3.582031 120.28125 4.742188 118.71875 5.578125 C 117.164062 6.421875 115.296875 7.125 113.109375 7.6875 C 111.847656 7.769531 110.566406 7.8125 109.265625 7.8125 C 102.648438 7.8125 95.738281 6.601562 88.53125 4.1875 L 90.828125 -10.328125 L 104.375 -9.84375 Z M 79.109375 -69.671875 L 96.96875 -69.46875 L 96.96875 -15.421875 L 79.109375 -15.78125 Z M 32.8125 -52.015625 L 53.265625 -52.015625 L 53.34375 -59.828125 L 32.8125 -59.96875 Z M 32.8125 -32.046875 L 53.0625 -32.046875 L 53.125 -39.65625 L 32.8125 -39.65625 Z M 32.8125 -32.046875 "/></g></g></g><g fill="#ffffff" fill-opacity="1"><g transform="translate(1013.135184, 207.667483)"><g><path d="M 133.484375 -81.609375 L 51.734375 -81.609375 L 51.734375 -108.5 L 70.03125 -108.5 L 70.03125 -95.015625 L 82.453125 -95.015625 L 82.453125 -111.5625 L 100.609375 -111.5625 L 100.609375 -95.015625 L 112.96875 -95.015625 L 112.96875 -108.421875 L 133.484375 -108.421875 Z M 15.921875 -106.609375 L 40.5625 -103.328125 L 37.765625 -88.53125 L 13.890625 -92.234375 Z M 47.6875 -65.90625 L 6.5 -65.90625 L 6.5 -85.25 L 47.6875 -85.25 Z M 88.53125 4.53125 L 74.90625 4.53125 L 74.90625 -41.953125 L 68.421875 -41.953125 L 68.421875 6.625 L 51.109375 6.625 L 51.109375 -55.640625 L 73.515625 -55.640625 C 75.660156 -57.972656 77.5 -60.320312 79.03125 -62.6875 L 50.609375 -62.6875 L 50.609375 -76.3125 L 134.953125 -76.3125 L 134.953125 -62.6875 L 96.90625 -62.6875 C 96.25 -60.039062 95.085938 -57.691406 93.421875 -55.640625 L 134.671875 -55.640625 C 134.253906 -21.566406 133.90625 -3.109375 133.625 -0.265625 C 133.34375 2.566406 131.570312 4.457031 128.3125 5.40625 C 125.0625 6.363281 122.503906 6.84375 120.640625 6.84375 C 117.617188 6.84375 114.523438 6.164062 111.359375 4.8125 L 110.234375 -8.59375 L 115.34375 -9.28125 L 115.34375 -42.3125 L 108.21875 -42.234375 L 108.21875 4.609375 L 94.875 4.609375 L 94.875 -42.171875 L 88.53125 -42.09375 Z M 31.765625 -65 L 45.9375 -62.5625 C 45.238281 -46.914062 42.515625 -35.625 37.765625 -28.6875 L 48.875 -30.515625 L 49.640625 -16.203125 C 44.003906 -9.492188 29.664062 -5.070312 6.625 -2.9375 L 4.671875 -23.390625 L 35.609375 -28.34375 L 27.09375 -34.984375 C 29.46875 -39.679688 31.023438 -49.6875 31.765625 -65 Z M 18.296875 -64.859375 C 22.671875 -52.335938 24.925781 -41.679688 25.0625 -32.890625 L 11.515625 -26.453125 C 11.515625 -34.597656 10.398438 -45.003906 8.171875 -57.671875 Z M 18.296875 -64.859375 "/></g></g></g><g fill="#ffffff" fill-opacity="1"><g transform="translate(1152.753095, 207.667483)"><g><path d="M 131.109375 -92.296875 L 96.765625 -92.296875 C 96.390625 -91.222656 95.992188 -90.175781 95.578125 -89.15625 L 127.203125 -89.15625 L 127.203125 -79.375 L 115.265625 -79.375 L 115.265625 -75.40625 L 131.75 -75.40625 L 131.75 -65.703125 L 82.9375 -65.703125 L 82.9375 -71.5 C 80.195312 -69.21875 77.125 -67.378906 73.71875 -65.984375 L 66.53125 -74.28125 C 71.84375 -78.332031 76.265625 -84.335938 79.796875 -92.296875 L 71.28125 -92.296875 L 71.28125 -104.515625 L 84.0625 -104.515625 C 84.757812 -107.117188 85.410156 -109.84375 86.015625 -112.6875 L 100.8125 -111.015625 C 100.53125 -108.773438 100.226562 -106.609375 99.90625 -104.515625 L 131.109375 -104.515625 Z M 56.203125 -109.46875 C 56.203125 -109.46875 56.445312 -109.15625 56.9375 -108.53125 C 57.425781 -107.90625 58.078125 -107.03125 58.890625 -105.90625 C 59.703125 -104.789062 60.617188 -103.554688 61.640625 -102.203125 C 62.671875 -100.859375 63.71875 -99.453125 64.78125 -97.984375 C 65.851562 -96.515625 66.890625 -95.09375 67.890625 -93.71875 C 68.890625 -92.351562 69.804688 -91.109375 70.640625 -89.984375 C 71.484375 -88.867188 72.140625 -87.960938 72.609375 -87.265625 C 73.078125 -86.566406 73.3125 -86.171875 73.3125 -86.078125 C 73.257812 -85.941406 72.835938 -85.46875 72.046875 -84.65625 C 71.253906 -83.84375 70.285156 -82.863281 69.140625 -81.71875 C 68.003906 -80.582031 66.878906 -79.453125 65.765625 -78.328125 L 62.828125 -75.546875 C 62.035156 -74.753906 61.640625 -74.359375 61.640625 -74.359375 L 45.65625 -98.4375 Z M 20.59375 3.703125 L 6.5 3.703125 L 6.5 -107.234375 L 45.65625 -107.234375 C 45.65625 -107.234375 45.523438 -105.976562 45.265625 -103.46875 C 45.015625 -100.957031 44.484375 -97.769531 43.671875 -93.90625 C 42.859375 -90.039062 41.660156 -86.015625 40.078125 -81.828125 C 38.492188 -77.640625 36.375 -74.195312 33.71875 -71.5 C 38.238281 -67.90625 41.566406 -63.945312 43.703125 -59.625 L 43.21875 -72.046875 L 65.984375 -72.75 L 64.234375 -19.828125 C 68.191406 -19.597656 72.144531 -18.96875 76.09375 -17.9375 C 81.3125 -16.539062 86.992188 -14.9375 93.140625 -13.125 C 98.859375 -11.6875 104.03125 -10.847656 108.65625 -10.609375 C 113.289062 -10.378906 116.960938 -10.265625 119.671875 -10.265625 C 122.179688 -10.265625 125.039062 -10.367188 128.25 -10.578125 C 131.46875 -10.785156 133.078125 -10.890625 133.078125 -10.890625 C 132.890625 -4.609375 132.796875 -0.140625 132.796875 2.515625 C 132.796875 2.835938 132.804688 3.671875 132.828125 5.015625 C 132.847656 6.367188 132.859375 7.046875 132.859375 7.046875 C 132.859375 7.046875 130.691406 7.195312 126.359375 7.5 C 122.035156 7.800781 118.335938 7.953125 115.265625 7.953125 C 111.304688 7.953125 106.113281 7.742188 99.6875 7.328125 C 93.269531 6.910156 86.363281 5.351562 78.96875 2.65625 C 71.789062 0 66.816406 -1.394531 64.046875 -1.53125 C 61.285156 -1.675781 59.4375 -1.75 58.5 -1.75 C 55.476562 -1.75 52.976562 -1.410156 51 -0.734375 C 49.019531 -0.0546875 47.890625 0.554688 47.609375 1.109375 C 47.566406 1.160156 47.546875 1.1875 47.546875 1.1875 C 47.359375 1.1875 47.085938 0.6875 46.734375 -0.3125 C 46.390625 -1.3125 45.984375 -2.695312 45.515625 -4.46875 C 45.054688 -6.238281 44.613281 -8.03125 44.1875 -9.84375 C 43.769531 -11.65625 43.421875 -13.191406 43.140625 -14.453125 C 42.867188 -15.710938 42.734375 -16.34375 42.734375 -16.34375 C 45.378906 -17.3125 47.914062 -18.097656 50.34375 -18.703125 L 51.671875 -54.59375 L 45.734375 -54.03125 C 46.285156 -51.800781 46.5625 -49.476562 46.5625 -47.0625 C 46.5625 -41.84375 45.285156 -36.207031 42.734375 -30.15625 C 39.984375 -24.894531 37.488281 -21.984375 35.25 -21.421875 C 33.019531 -20.867188 31.394531 -20.59375 30.375 -20.59375 C 27.71875 -20.59375 24.898438 -21.382812 21.921875 -22.96875 C 21.035156 -23.894531 20.222656 -24.753906 19.484375 -25.546875 Z M 20.59375 -69.75 L 28.6875 -91.046875 L 20.59375 -91.046875 Z M 90.265625 -79.375 C 89.296875 -77.976562 88.25 -76.65625 87.125 -75.40625 L 100.1875 -75.40625 L 100.1875 -79.375 Z M 20.109375 -43.28125 C 20.429688 -43.007812 20.828125 -42.6875 21.296875 -42.3125 C 22.785156 -41.007812 24.097656 -40.265625 25.234375 -40.078125 C 26.378906 -39.890625 27.066406 -39.796875 27.296875 -39.796875 C 29.109375 -39.796875 30.851562 -40.957031 32.53125 -43.28125 C 33.226562 -44.488281 33.578125 -45.75 33.578125 -47.0625 C 33.578125 -48.175781 33.191406 -49.707031 32.421875 -51.65625 C 31.660156 -53.613281 30.242188 -55.859375 28.171875 -58.390625 C 26.097656 -60.929688 24.15625 -63.039062 22.34375 -64.71875 C 21.175781 -65.738281 20.59375 -66.25 20.59375 -66.25 Z M 89.78125 -19.34375 L 74.703125 -19.34375 L 74.703125 -62.28125 L 127.96875 -62.28125 C 127.78125 -36.257812 127.617188 -22.738281 127.484375 -21.71875 C 127.347656 -20.320312 127.019531 -19.109375 126.5 -18.078125 C 125.988281 -17.054688 125.507812 -16.148438 125.0625 -15.359375 C 124.625 -14.566406 123.867188 -13.914062 122.796875 -13.40625 C 121.734375 -12.894531 120.570312 -12.453125 119.3125 -12.078125 C 117.5 -11.421875 115.148438 -11.09375 112.265625 -11.09375 C 110.398438 -11.09375 108.304688 -11.234375 105.984375 -11.515625 L 100.890625 -19.6875 L 111.703125 -22.0625 L 111.640625 -27.09375 L 89.78125 -27.09375 Z M 89.78125 -48.453125 L 111.421875 -48.453125 L 111.359375 -53.625 L 89.78125 -53.546875 Z M 89.78125 -35.8125 L 111.5625 -35.8125 L 111.5 -40.5625 L 89.78125 -40.5625 Z M 89.78125 -35.8125 "/></g></g></g><g fill="#ffffff" fill-opacity="1"><g transform="translate(1292.371006, 207.667483)"><g><path d="M 30.921875 -112.96875 L 46.703125 -107.3125 C 46.660156 -106.707031 46.546875 -106.078125 46.359375 -105.421875 L 74.84375 -105.421875 L 74.84375 -94.390625 L 51.3125 -94.390625 C 56.007812 -92.429688 60.015625 -90.289062 63.328125 -87.96875 L 53.40625 -78.46875 L 34.140625 -91.046875 C 29.390625 -88.015625 23.0625 -85.128906 15.15625 -82.390625 L 6.21875 -88.671875 C 11.65625 -91.742188 16.34375 -95.382812 20.28125 -99.59375 C 24.21875 -103.800781 27.765625 -108.257812 30.921875 -112.96875 Z M 89.015625 -112.96875 L 105.703125 -109.265625 C 105.703125 -109.023438 105.703125 -108.789062 105.703125 -108.5625 C 105.703125 -107.539062 105.539062 -106.492188 105.21875 -105.421875 L 133.421875 -105.421875 L 133.421875 -95.78125 L 98.375 -95.78125 C 98.226562 -95.644531 98.085938 -95.507812 97.953125 -95.375 C 105.867188 -94.53125 112.335938 -93.550781 117.359375 -92.4375 C 122.578125 -91.226562 126.90625 -89.898438 130.34375 -88.453125 L 116.796875 -79.515625 L 89.296875 -89.578125 C 86.085938 -87.765625 82.34375 -85.945312 78.0625 -84.125 L 68.28125 -89.015625 C 73.21875 -92.273438 77.300781 -95.953125 80.53125 -100.046875 C 83.769531 -104.140625 86.597656 -108.445312 89.015625 -112.96875 Z M 12.421875 -17.65625 L 60.25 -17.65625 L 60.25 -22.484375 L 17.59375 -22.484375 L 17.59375 -33.09375 L 60.25 -33.09375 L 60.25 -37.90625 L 21.21875 -37.90625 L 21.21875 -47.40625 L 60.25 -47.40625 L 60.25 -51.875 L 13.0625 -51.875 L 13.0625 -62.203125 L 60.25 -62.203125 L 60.25 -67.4375 L 21.21875 -67.4375 L 21.21875 -77.921875 L 60.25 -77.921875 L 60.25 -82.9375 L 80.296875 -82.9375 L 80.296875 -77.921875 L 122.046875 -77.921875 L 122.046875 -62.203125 L 130.765625 -62.203125 L 130.765625 -51.875 L 122.046875 -51.875 L 122.046875 -37.90625 L 80.296875 -37.90625 L 80.296875 -33.09375 L 121.34375 -33.09375 L 121.34375 -22.484375 L 80.296875 -22.484375 L 80.296875 -17.65625 L 129.859375 -17.65625 L 129.859375 -3.28125 L 80.296875 -3.28125 L 80.296875 8.3125 L 60.25 8.3125 L 60.25 -3.28125 L 12.421875 -3.28125 Z M 80.296875 -62.203125 L 99.34375 -62.203125 L 99.34375 -67.4375 L 80.296875 -67.4375 Z M 80.296875 -47.40625 L 99.34375 -47.40625 L 99.34375 -51.875 L 80.296875 -51.875 Z M 80.296875 -47.40625 "/></g></g></g></svg>