<svg xmlns="http://www.w3.org/2000/svg" xmlns:xlink="http://www.w3.org/1999/xlink" width="500" zoomAndPan="magnify" viewBox="0 0 375 374.999991" height="500" preserveAspectRatio="xMidYMid meet" version="1.0"><defs><clipPath id="9d8f3b5d18"><path d="M 0 59.316406 L 375 59.316406 L 375 315.816406 L 0 315.816406 Z M 0 59.316406 " clip-rule="nonzero"/></clipPath><clipPath id="2a7f9f6013"><path d="M 69 82 L 375 82 L 375 315.816406 L 69 315.816406 Z M 69 82 " clip-rule="nonzero"/></clipPath><clipPath id="0a6be9daeb"><path d="M 37 59.316406 L 356 59.316406 L 356 297 L 37 297 Z M 37 59.316406 " clip-rule="nonzero"/></clipPath></defs><g clip-path="url(#9d8f3b5d18)"><path fill="#f9c630" d="M 374.925781 138.191406 L 355.875 138.191406 L 355.875 59.398438 L 37.425781 59.398438 L 37.425781 184.417969 L 31.875 178.863281 L 26.398438 173.308594 L 0 199.726562 L 8.925781 208.65625 L 26.324219 191.246094 L 37.351562 202.277344 L 37.351562 297.054688 L 69 297.054688 L 69 315.8125 L 375 315.8125 Z M 50.023438 72.003906 L 156.300781 72.003906 C 158.023438 72.003906 159.75 72.15625 161.476562 72.453125 C 161.699219 72.453125 161.851562 72.53125 162.074219 72.53125 C 162.226562 72.53125 162.375 72.605469 162.523438 72.605469 C 170.398438 74.179688 177.300781 78.832031 181.800781 85.664062 L 191.175781 99.996094 C 191.625 100.671875 192.074219 101.347656 192.601562 102.019531 C 192.824219 102.171875 192.976562 102.472656 193.125 102.621094 C 193.273438 102.773438 193.425781 102.996094 193.574219 103.148438 C 193.648438 103.222656 193.726562 103.296875 193.800781 103.371094 C 193.949219 103.597656 194.101562 103.746094 194.25 103.972656 C 194.324219 104.046875 194.398438 104.046875 194.398438 104.121094 C 194.476562 104.273438 194.550781 104.347656 194.699219 104.496094 C 194.699219 104.574219 194.773438 104.574219 194.773438 104.648438 C 195.226562 105.097656 195.523438 105.472656 195.976562 105.921875 C 196.125 106.074219 196.199219 106.222656 196.425781 106.375 C 196.425781 106.449219 196.5 106.449219 196.5 106.523438 C 196.574219 106.597656 196.648438 106.675781 196.726562 106.75 L 50.023438 106.75 Z M 69.074219 284.296875 L 69.074219 284.371094 L 50.023438 284.371094 L 50.023438 209.40625 L 67.949219 191.46875 L 69.074219 192.597656 Z M 152.101562 281.820312 L 149.625 284.296875 L 139.425781 294.5 L 139.351562 294.578125 L 136.949219 296.976562 L 136.875 297.054688 L 127.574219 306.359375 L 118.648438 297.503906 L 119.023438 297.128906 L 118.949219 297.128906 L 121.5 294.578125 L 131.699219 284.371094 L 134.175781 281.894531 L 145.875 270.261719 L 154.726562 279.195312 Z M 123.300781 258.105469 L 150.601562 230.792969 L 159.523438 239.722656 L 132.226562 267.035156 Z M 166.875 267.035156 L 157.949219 258.105469 L 185.25 230.792969 L 194.175781 239.722656 Z M 293.101562 258.632812 L 267.675781 226.289062 L 263.398438 233.492188 L 252 252.328125 L 241.5 213.15625 L 231 173.835938 L 270.074219 184.265625 L 270.148438 184.265625 L 309.449219 194.773438 L 299.023438 201 L 283.351562 210.457031 L 315.601562 235.96875 Z M 343.199219 138.191406 L 69.074219 138.191406 L 69.074219 174.585938 L 67.949219 173.460938 L 67.949219 173.535156 L 67.875 173.460938 L 50.023438 191.46875 L 50.023438 119.429688 L 343.199219 119.429688 Z M 343.273438 106.75 L 227.398438 106.75 C 217.125 106.75 207.601562 101.722656 201.976562 93.089844 L 192.449219 78.757812 C 192 78.082031 191.550781 77.40625 191.023438 76.730469 C 190.875 76.582031 190.726562 76.28125 190.574219 76.132812 C 190.425781 75.980469 190.273438 75.757812 190.125 75.605469 C 190.050781 75.53125 189.976562 75.457031 189.898438 75.382812 C 189.75 75.15625 189.601562 75.007812 189.449219 74.78125 C 189.375 74.707031 189.226562 74.632812 189.148438 74.554688 C 189.074219 74.480469 189 74.40625 188.925781 74.332031 C 188.851562 74.257812 188.851562 74.179688 188.773438 74.179688 C 188.324219 73.730469 188.023438 73.355469 187.574219 72.90625 C 187.351562 72.605469 187.199219 72.453125 187.050781 72.304688 C 186.976562 72.230469 186.898438 72.15625 186.824219 72.078125 L 343.199219 72.078125 L 343.199219 106.75 Z M 343.273438 106.75 " fill-opacity="1" fill-rule="nonzero"/><path fill="#f9c630" d="M 71.398438 82.136719 C 67.425781 82.136719 64.351562 85.363281 64.351562 89.1875 C 64.351562 93.167969 67.574219 96.242188 71.398438 96.242188 C 75.375 96.242188 78.449219 93.015625 78.449219 89.1875 C 78.523438 85.363281 75.300781 82.136719 71.398438 82.136719 Z M 96.675781 82.136719 C 92.699219 82.136719 89.625 85.363281 89.625 89.1875 C 89.625 93.167969 92.851562 96.242188 96.675781 96.242188 C 100.648438 96.242188 103.726562 93.015625 103.726562 89.1875 C 103.726562 85.363281 100.574219 82.136719 96.675781 82.136719 Z M 121.949219 82.136719 C 117.976562 82.136719 114.898438 85.363281 114.898438 89.1875 C 114.898438 93.167969 118.125 96.242188 121.949219 96.242188 C 125.925781 96.242188 129 93.015625 129 89.1875 C 129 85.363281 125.851562 82.136719 121.949219 82.136719 Z M 111.375 172.859375 L 89.25 194.847656 L 69 174.511719 L 67.875 173.386719 L 50.023438 191.394531 L 50.023438 209.332031 L 67.949219 191.394531 L 69.074219 192.519531 L 89.398438 212.855469 L 111.449219 190.871094 L 129.226562 208.65625 L 138.148438 199.726562 Z M 121.949219 82.136719 C 117.976562 82.136719 114.898438 85.363281 114.898438 89.1875 C 114.898438 93.167969 118.125 96.242188 121.949219 96.242188 C 125.925781 96.242188 129 93.015625 129 89.1875 C 129 85.363281 125.851562 82.136719 121.949219 82.136719 Z M 96.675781 82.136719 C 92.699219 82.136719 89.625 85.363281 89.625 89.1875 C 89.625 93.167969 92.851562 96.242188 96.675781 96.242188 C 100.648438 96.242188 103.726562 93.015625 103.726562 89.1875 C 103.726562 85.363281 100.574219 82.136719 96.675781 82.136719 Z M 71.398438 82.136719 C 67.425781 82.136719 64.351562 85.363281 64.351562 89.1875 C 64.351562 93.167969 67.574219 96.242188 71.398438 96.242188 C 75.375 96.242188 78.449219 93.015625 78.449219 89.1875 C 78.523438 85.363281 75.300781 82.136719 71.398438 82.136719 Z M 355.875 138.117188 L 355.875 59.324219 L 37.425781 59.324219 L 37.425781 184.339844 L 26.398438 173.308594 L 0 199.648438 L 8.925781 208.578125 L 26.324219 191.171875 L 37.351562 202.203125 L 37.351562 296.976562 L 69 296.976562 L 69 315.738281 L 375 315.738281 L 375 138.117188 Z M 343.273438 71.929688 L 343.273438 106.675781 L 227.25 106.675781 C 216.976562 106.675781 207.523438 101.496094 201.824219 93.015625 L 192.375 78.683594 C 191.925781 78.007812 191.476562 77.332031 190.949219 76.65625 C 190.800781 76.507812 190.648438 76.207031 190.5 76.058594 C 190.199219 75.53125 189.75 75.15625 189.375 74.707031 C 189.226562 74.554688 189.074219 74.257812 188.773438 74.03125 C 188.324219 73.582031 188.023438 73.207031 187.574219 72.753906 C 187.425781 72.605469 187.273438 72.304688 187.050781 72.15625 C 186.976562 72.078125 186.898438 72.003906 186.824219 71.929688 Z M 50.023438 71.929688 L 156.375 71.929688 C 166.648438 71.929688 176.101562 77.109375 181.726562 85.585938 L 191.25 99.921875 C 191.699219 100.59375 192.148438 101.269531 192.675781 101.945312 C 192.824219 102.097656 192.976562 102.398438 193.125 102.546875 C 193.425781 103.070312 193.875 103.445312 194.25 103.898438 C 194.398438 104.121094 194.550781 104.347656 194.851562 104.574219 C 195.148438 105.023438 195.601562 105.398438 195.976562 105.847656 C 196.125 106 196.273438 106.296875 196.574219 106.449219 C 196.648438 106.523438 196.726562 106.597656 196.800781 106.675781 L 50.023438 106.675781 Z M 50.023438 119.355469 L 343.199219 119.355469 L 343.199219 138.117188 L 69.074219 138.117188 L 69.074219 174.511719 L 67.949219 173.386719 L 50.023438 191.394531 Z M 150.601562 230.71875 L 159.523438 239.648438 L 132.226562 266.960938 L 123.300781 258.03125 Z M 185.25 230.71875 L 194.175781 239.648438 L 166.875 266.960938 L 157.949219 258.03125 Z M 315.75 235.96875 L 293.101562 258.632812 L 267.675781 226.289062 L 251.925781 252.328125 L 230.851562 173.6875 L 270.148438 184.191406 L 309.449219 194.695312 L 283.351562 210.378906 Z M 50.023438 284.371094 L 50.023438 209.332031 L 67.949219 191.394531 L 69.074219 192.519531 L 69.074219 284.371094 Z M 127.574219 306.285156 L 118.648438 297.351562 L 119.101562 296.902344 L 121.574219 294.425781 L 131.773438 284.222656 L 134.25 281.746094 L 146.023438 269.964844 L 154.949219 278.894531 L 152.101562 281.746094 L 149.625 284.222656 L 139.425781 294.425781 L 136.949219 296.902344 Z M 121.949219 82.136719 C 117.976562 82.136719 114.898438 85.363281 114.898438 89.1875 C 114.898438 93.167969 118.125 96.242188 121.949219 96.242188 C 125.925781 96.242188 129 93.015625 129 89.1875 C 129 85.363281 125.851562 82.136719 121.949219 82.136719 Z M 96.675781 82.136719 C 92.699219 82.136719 89.625 85.363281 89.625 89.1875 C 89.625 93.167969 92.851562 96.242188 96.675781 96.242188 C 100.648438 96.242188 103.726562 93.015625 103.726562 89.1875 C 103.726562 85.363281 100.574219 82.136719 96.675781 82.136719 Z M 71.398438 82.136719 C 67.425781 82.136719 64.351562 85.363281 64.351562 89.1875 C 64.351562 93.167969 67.574219 96.242188 71.398438 96.242188 C 75.375 96.242188 78.449219 93.015625 78.449219 89.1875 C 78.523438 85.363281 75.300781 82.136719 71.398438 82.136719 Z M 71.398438 82.136719 C 67.425781 82.136719 64.351562 85.363281 64.351562 89.1875 C 64.351562 93.167969 67.574219 96.242188 71.398438 96.242188 C 75.375 96.242188 78.449219 93.015625 78.449219 89.1875 C 78.523438 85.363281 75.300781 82.136719 71.398438 82.136719 Z M 96.675781 82.136719 C 92.699219 82.136719 89.625 85.363281 89.625 89.1875 C 89.625 93.167969 92.851562 96.242188 96.675781 96.242188 C 100.648438 96.242188 103.726562 93.015625 103.726562 89.1875 C 103.726562 85.363281 100.574219 82.136719 96.675781 82.136719 Z M 121.949219 82.136719 C 117.976562 82.136719 114.898438 85.363281 114.898438 89.1875 C 114.898438 93.167969 118.125 96.242188 121.949219 96.242188 C 125.925781 96.242188 129 93.015625 129 89.1875 C 129 85.363281 125.851562 82.136719 121.949219 82.136719 Z M 121.949219 82.136719 C 117.976562 82.136719 114.898438 85.363281 114.898438 89.1875 C 114.898438 93.167969 118.125 96.242188 121.949219 96.242188 C 125.925781 96.242188 129 93.015625 129 89.1875 C 129 85.363281 125.851562 82.136719 121.949219 82.136719 Z M 96.675781 82.136719 C 92.699219 82.136719 89.625 85.363281 89.625 89.1875 C 89.625 93.167969 92.851562 96.242188 96.675781 96.242188 C 100.648438 96.242188 103.726562 93.015625 103.726562 89.1875 C 103.726562 85.363281 100.574219 82.136719 96.675781 82.136719 Z M 71.398438 82.136719 C 67.425781 82.136719 64.351562 85.363281 64.351562 89.1875 C 64.351562 93.167969 67.574219 96.242188 71.398438 96.242188 C 75.375 96.242188 78.449219 93.015625 78.449219 89.1875 C 78.523438 85.363281 75.300781 82.136719 71.398438 82.136719 Z M 71.398438 82.136719 " fill-opacity="1" fill-rule="nonzero"/></g><g clip-path="url(#2a7f9f6013)"><path fill="#f9c630" d="M 145.949219 270.113281 L 154.875 279.042969 L 152.023438 281.894531 L 149.550781 284.371094 L 343.273438 284.371094 L 343.273438 138.117188 L 69.074219 138.117188 L 69.074219 174.511719 L 89.398438 194.847656 L 111.449219 172.785156 L 138.148438 199.5 L 129.148438 208.503906 L 111.375 190.71875 L 89.398438 212.707031 L 69.074219 192.371094 L 69.074219 284.222656 L 131.773438 284.222656 L 134.25 281.746094 Z M 270.148438 184.191406 L 309.449219 194.695312 L 283.351562 210.378906 L 315.675781 235.820312 L 293.101562 258.558594 L 267.675781 226.214844 L 252 252.402344 L 231 173.761719 Z M 194.175781 239.648438 L 166.875 266.960938 L 157.949219 258.03125 L 185.25 230.71875 Z M 123.300781 258.03125 L 150.601562 230.71875 L 159.523438 239.648438 L 132.226562 266.960938 Z M 374.925781 138.117188 L 374.925781 315.664062 L 69.074219 315.664062 L 69.074219 296.976562 L 119.101562 296.976562 L 118.648438 297.429688 L 127.574219 306.359375 L 136.949219 296.976562 L 355.949219 296.976562 L 355.949219 138.117188 Z M 103.800781 89.339844 C 103.800781 93.316406 100.574219 96.394531 96.75 96.394531 C 92.851562 96.394531 89.699219 93.167969 89.699219 89.339844 C 89.699219 85.511719 92.925781 82.285156 96.75 82.285156 C 100.574219 82.210938 103.800781 85.363281 103.800781 89.339844 Z M 103.800781 89.339844 " fill-opacity="1" fill-rule="nonzero"/></g><g clip-path="url(#0a6be9daeb)"><path fill="#56b9ac" d="M 69.074219 284.371094 L 69.074219 296.976562 L 37.425781 296.976562 L 37.425781 202.203125 L 47.25 212.03125 L 50.023438 209.253906 L 50.023438 284.296875 L 69.074219 284.296875 Z M 47.25 194.246094 L 37.425781 184.417969 L 37.425781 59.324219 L 355.875 59.324219 L 355.875 138.117188 L 343.273438 138.117188 L 343.273438 119.355469 L 50.023438 119.355469 L 50.023438 191.46875 Z M 186.898438 71.929688 C 186.976562 72.003906 187.050781 72.078125 187.125 72.15625 C 187.273438 72.304688 187.425781 72.453125 187.648438 72.753906 C 188.101562 73.207031 188.398438 73.582031 188.851562 74.03125 C 189 74.257812 189.148438 74.480469 189.449219 74.707031 C 189.75 75.15625 190.199219 75.605469 190.574219 76.058594 C 190.726562 76.207031 190.875 76.507812 191.023438 76.65625 C 191.550781 77.332031 192 78.007812 192.449219 78.683594 L 201.976562 93.015625 C 207.601562 101.644531 217.125 106.675781 227.398438 106.675781 L 343.5 106.675781 L 343.5 71.929688 Z M 50.023438 106.675781 L 196.726562 106.675781 C 196.648438 106.597656 196.574219 106.523438 196.5 106.449219 C 196.351562 106.296875 196.199219 106 195.976562 105.847656 C 195.523438 105.398438 195.226562 105.023438 194.773438 104.574219 C 194.625 104.347656 194.476562 104.121094 194.175781 103.898438 C 193.875 103.445312 193.425781 102.996094 193.050781 102.546875 C 192.898438 102.398438 192.75 102.097656 192.523438 101.945312 C 192 101.269531 191.550781 100.59375 191.101562 99.921875 L 181.726562 85.585938 C 176.101562 76.957031 166.574219 71.929688 156.300781 71.929688 L 50.023438 71.929688 Z M 121.949219 82.136719 C 117.976562 82.136719 114.898438 85.363281 114.898438 89.1875 C 114.898438 93.015625 118.125 96.242188 121.949219 96.242188 C 125.851562 96.242188 129 93.015625 129 89.1875 C 129 85.363281 125.851562 82.136719 121.949219 82.136719 Z M 121.949219 82.136719 " fill-opacity="1" fill-rule="nonzero"/></g><path fill="#f98a8a" d="M 78.523438 89.339844 C 78.523438 93.316406 75.300781 96.394531 71.476562 96.394531 C 67.574219 96.394531 64.425781 93.167969 64.425781 89.339844 C 64.425781 85.511719 67.648438 82.285156 71.476562 82.285156 C 75.300781 82.210938 78.523438 85.363281 78.523438 89.339844 Z M 26.398438 173.234375 L 0 199.648438 L 8.925781 208.578125 L 26.324219 191.171875 L 37.351562 202.203125 L 37.351562 184.339844 Z M 69.074219 192.371094 L 89.398438 212.707031 L 111.449219 190.644531 L 129.226562 208.429688 L 138.148438 199.5 L 111.449219 172.785156 L 89.398438 194.847656 L 69.074219 174.511719 L 67.949219 173.386719 L 50.023438 191.394531 L 50.023438 209.332031 L 67.949219 191.394531 Z M 69.074219 192.371094 " fill-opacity="1" fill-rule="nonzero"/><path fill="#4e2ec8" d="M 343.273438 138.117188 L 355.875 138.117188 L 355.875 296.976562 L 136.875 296.976562 L 139.351562 294.5 L 149.550781 284.296875 L 343.273438 284.296875 Z M 121.574219 294.425781 L 131.773438 284.222656 L 69.074219 284.222656 L 69.074219 296.828125 L 119.101562 296.828125 Z M 50.023438 209.332031 L 50.023438 191.46875 L 47.25 194.246094 L 37.425781 184.417969 L 37.425781 202.277344 L 47.25 212.105469 Z M 50.023438 209.332031 " fill-opacity="1" fill-rule="nonzero"/></svg>